<?xml version="1.0" encoding="utf-8"?>
<!-- Generator: Adobe Illustrator 22.1.0, SVG Export Plug-In . SVG Version: 6.00 Build 0)  -->
<svg version="1.1" id="Layer_1" xmlns="http://www.w3.org/2000/svg" xmlns:xlink="http://www.w3.org/1999/xlink" x="0px" y="0px"
	 viewBox="0 0 80 80" style="enable-background:new 0 0 80 80;" xml:space="preserve">
<style type="text/css">
	.st0{fill:#91C73E;}
	.st1{fill:#1D1E50;}
</style>
<g>
	<path class="st0" d="M76.3,13.5l-0.5-0.6c-2.3-2.4-3.9-2.4-6.5-0.1C60,20.9,54,27.9,44.5,40.7c-1.9,2.6-3.7,5.1-5.6,7.8
		c-0.6,0.8-1.1,1.6-1.7,2.4c-0.1-0.2-0.2-0.3-0.3-0.5l-2.8-4.1c-2.1-3.1-4.2-6.1-6.3-9.2c-1.3-1.8-3.3-2.4-5-1.4
		c-1.7,1-2.3,3.1-1.3,4.9c3.6,6.6,7.7,14.1,11.7,21.4c0.8,1.4,2.1,2.3,3.7,2.4c0.1,0,0.2,0,0.3,0c1.5,0,2.9-0.7,3.9-2
		c0.4-0.6,0.8-1.2,1.1-1.7c0.1-0.2,0.3-0.4,0.4-0.7c11.4-18.9,19.6-30.4,31.8-42.1c0.3-0.3,0.6-0.7,0.9-1.1l0,0l0.5-0.7l0.3-0.3
		v-0.1C76.7,14.6,76.5,13.8,76.3,13.5z"/>
	<g>
		<path class="st1" d="M17.5,59v-8.1v-0.2c0-3.2-2.1-5.1-6.3-5.7v-0.3c4.1-0.6,6.2-2.6,6.3-6v-8.1c0-1.2,0.3-2.1,1-2.8
			c0.7-0.6,1.9-1,3.7-1v-6.1c-4.4,0-7.4,0.6-9.2,1.7c-1.7,1.1-2.6,3.1-2.6,5.8v8.6V37c0,1.5-0.6,2.6-1.8,3.4
			c-1.2,0.8-2.9,1.2-5.1,1.2V48c2.2,0,4,0.4,5.1,1.2c1.2,0.8,1.8,2,1.8,3.6v8.5c0,2.8,0.9,4.7,2.6,5.8c1.7,1.1,4.8,1.7,9.2,1.7v-6.1
			c-1.8-0.1-3-0.4-3.7-1C17.8,61.1,17.5,60.2,17.5,59z"/>
		<path class="st1" d="M61.1,44.6V45c-2.1,0.3-3.6,0.9-4.7,1.9c-1.1,1-1.6,2.2-1.6,3.8v0.3V59c0,1.3-0.3,2.2-1,2.8
			c-0.7,0.6-1.9,0.9-3.7,1v6.1c3,0,5.4-0.2,7-0.7c1.7-0.5,2.9-1.2,3.7-2.3c0.7-1,1.1-2.5,1.1-4.6v-8.5c0-1.7,0.6-3,1.8-3.7
			c1.2-0.7,2.9-1.1,5.1-1.1v-6.4c-2.4,0-4.1-0.4-5.2-1.1c-1.1-0.8-1.7-1.9-1.7-3.4v-0.3v-2.1c-1.9,2.5-3.8,5-5.7,7.7
			C57.3,43.5,58.9,44.3,61.1,44.6z"/>
		<path class="st1" d="M57.2,21.4c-1.7-0.5-4.1-0.7-7.1-0.7v6.1c1.1,0,2,0.2,2.7,0.4c1.6-1.9,3.3-3.8,4.9-5.6
			C57.6,21.5,57.4,21.5,57.2,21.4z"/>
	</g>
</g>
</svg>
